<svg width="163" height="77" viewBox="0 0 163 77" fill="none" xmlns="http://www.w3.org/2000/svg">
<path d="M18.58 37.5831C19.5214 38.9959 20.3017 40.1664 21.0821 41.337C21.0552 41.3754 21.0267 41.4117 20.9998 41.45C20.0299 40.5035 19.0599 39.5569 17.939 38.4631C17.5899 42.7538 17.2576 46.8164 16.9271 50.8771C16.8784 50.8811 16.8297 50.8851 16.7827 50.8892C16.4656 46.9678 16.1484 43.0444 15.8145 38.9091C15.1147 39.5065 14.5374 40.001 13.9618 40.4934C13.9165 40.451 13.8712 40.4086 13.8259 40.3683C14.3327 39.4984 14.8378 38.6306 15.4419 37.5953C10.9513 37.1714 6.59659 36.7597 2.2402 36.348C2.2402 36.2854 2.23853 36.2209 2.23853 36.1583C6.40193 35.7607 10.5637 35.3611 14.8882 34.9474C14.0793 33.7102 13.393 32.6587 12.7066 31.6093C12.7335 31.5649 12.7603 31.5225 12.7872 31.4781C13.7537 32.2672 14.7203 33.0563 15.8078 33.9443C16.14 30.0694 16.4572 26.3619 16.7744 22.6545C16.823 22.6525 16.87 22.6505 16.9187 22.6484C17.2694 26.4528 17.6184 30.255 17.9876 34.2652C19.3419 32.9514 20.5619 31.7667 21.7818 30.584C21.8053 30.6143 21.8272 30.6446 21.8506 30.6748C20.9596 32.0654 20.0702 33.4539 19.0599 35.0321C28.6722 35.2622 38.0763 35.4862 47.4805 35.7123C47.4805 35.7405 47.4805 35.7688 47.4805 35.797C37.9203 36.3884 28.3634 36.9797 18.58 37.5831Z" fill="#403637"/>
<path d="M48.7505 36.7577C42.7378 43.8941 36.8292 50.9114 30.9205 57.9267C30.9709 57.9892 31.0212 58.0538 31.0716 58.1164C35.7971 52.6935 40.5227 47.2705 45.3439 41.7386C45.9363 43.0162 46.4985 44.2231 47.1194 45.5591C40.0277 51.7752 32.9544 57.9771 25.8795 64.1791C25.8459 64.1367 25.8107 64.0963 25.7771 64.0539C27.0676 62.2739 28.353 60.4878 29.6485 58.7117C34.7332 51.7409 39.8296 44.7801 44.8975 37.7931C45.3976 37.1049 45.9279 36.7214 46.6831 36.7517C47.3124 36.7779 47.9433 36.7577 48.7505 36.7577Z" fill="#403637"/>
<path d="M24.1998 64.0761C17.1601 57.967 10.1221 51.8599 3.03039 45.7064C3.61437 44.4975 4.16815 43.3511 4.76388 42.118C8.30974 46.1201 11.7851 50.0435 14.8493 53.5027C10.649 48.3119 6.05603 42.6387 1.4043 36.8909C2.28698 36.9413 3.14282 36.9595 3.99195 37.0564C4.20675 37.0806 4.44336 37.3107 4.59943 37.5205C11.1223 46.2412 17.6367 54.972 24.1495 63.7007C24.2048 63.7754 24.2418 63.8662 24.2871 63.951C24.2602 63.9913 24.23 64.0337 24.1998 64.0761Z" fill="#403637"/>
<path d="M40.6839 34.7355C38.1432 34.7355 35.715 34.7375 33.2884 34.7335C32.696 34.7335 32.832 34.1866 32.8353 33.7849C32.8622 30.5921 32.9075 27.3973 32.931 24.2045C32.9461 22.1964 32.9343 20.1883 32.9343 18.1802C33.03 18.1095 33.124 18.0389 33.2196 17.9683C33.3438 18.2145 33.4428 18.489 33.5972 18.7049C35.0538 20.7433 36.5406 22.7534 37.9704 24.818C38.3496 25.365 38.6634 26.0391 38.8413 26.7172C39.4588 29.0866 40.0059 31.4842 40.5731 33.8737C40.6235 34.0957 40.6318 34.3319 40.6839 34.7355Z" fill="#403637"/>
<path d="M26.9016 61.2991C26.4351 62.1205 25.9686 62.9419 25.5021 63.7654C25.4769 63.7533 25.4517 63.7432 25.4282 63.7311C26.0021 61.4283 26.5677 59.1215 27.1516 56.8207C28.7475 50.5239 30.3619 44.2332 31.9309 37.9263C32.1088 37.2098 32.3655 36.9414 32.9613 36.9535C34.4061 36.9818 35.851 36.9616 37.4016 36.9616C36.6347 38.7094 35.8879 40.4248 35.1311 42.1343C32.624 47.7994 30.1102 53.4604 27.6081 59.1275C27.4671 59.4484 27.4 59.8157 27.2993 60.1609C27.1667 60.5423 27.0342 60.9197 26.9016 61.2991Z" fill="#403637"/>
<path d="M1 35.6819C4.63648 30.0875 8.12192 24.7251 11.6074 19.3647C11.656 19.3849 11.7047 19.4051 11.7534 19.4253C11.3573 22.1034 10.9579 24.7796 10.5636 27.4577C10.2363 29.6737 9.93093 31.8938 9.56846 34.0997C9.51308 34.4387 9.22276 34.9614 9.01132 34.9836C6.42535 35.2541 3.83434 35.4478 1 35.6819Z" fill="#403637"/>
<path d="M38.1599 19.0942C41.934 24.4828 45.5822 29.6918 49.3596 35.0865C48.4619 35.0865 47.7772 35.0966 47.0942 35.0845C45.3355 35.0562 43.5785 35.0118 41.8199 34.9916C41.4138 34.9876 41.1604 34.8847 41.053 34.3236C40.1199 29.492 39.1601 24.6665 38.2119 19.839C38.18 19.6775 38.1868 19.51 38.1599 19.0942Z" fill="#403637"/>
<path d="M20.5132 34.1178C21.7885 31.9583 22.9918 29.9219 24.1933 27.8856C24.1547 27.8311 24.1161 27.7766 24.0792 27.7221C23.1831 28.2085 22.2869 28.6928 21.3908 29.1792C21.3707 29.1369 21.3489 29.0945 21.3287 29.0521C22.5538 27.8593 23.7788 26.6686 24.9115 25.5667C27.3414 28.4103 29.7311 31.2055 32.2214 34.1198C28.2778 34.1178 24.4718 34.1178 20.5132 34.1178Z" fill="#403637"/>
<path d="M25.0022 60.0052C23.1714 53.7952 21.3406 47.5852 19.5098 41.3752C19.5584 41.347 19.6088 41.3207 19.6574 41.2925C21.396 44.7597 23.1345 48.227 24.9754 51.8981C26.9639 47.3188 28.8787 42.909 30.7934 38.4993C30.837 38.5174 30.8823 38.5376 30.926 38.5558C29.0112 45.6942 27.0982 52.8326 25.1835 59.9709C25.1247 59.983 25.0643 59.9952 25.0022 60.0052Z" fill="#403637"/>
<path d="M26.9016 61.299C27.0342 60.9196 27.1668 60.5422 27.2993 60.1628C28.1619 58.5583 29.0446 56.97 29.8819 55.3494C32.9479 49.4179 36.0054 43.4803 39.0511 37.5327C39.3415 36.9676 39.6452 36.6548 40.2409 36.6931C41.2394 36.7557 42.2429 36.7113 43.2901 36.7113C43.2095 36.8667 43.129 37.0644 43.0182 37.232C37.7909 45.105 32.5619 52.974 27.3279 60.8409C27.2087 61.0165 27.0443 61.1477 26.9016 61.299Z" fill="#403637"/>
<path d="M30.2461 30.4972C28.531 28.3034 26.8177 26.1116 25.0556 23.8573C23.396 25.7463 21.8655 27.486 20.3368 29.2277C20.2764 29.1773 20.2176 29.1268 20.1572 29.0743C21.8488 24.7231 23.5403 20.3698 25.309 15.8208C27.0962 20.7472 28.8113 25.4698 30.5246 30.1924C30.4323 30.2933 30.34 30.3943 30.2461 30.4972Z" fill="#403637"/>
<path d="M15.3546 31.3808C14.143 30.3737 13.0539 29.4675 11.9262 28.529C11.5855 29.0033 11.2818 29.4272 10.9613 29.8712C10.6995 28.6461 11.2012 25.6309 11.797 24.7449C13.4667 22.2686 15.1364 19.7943 16.8078 17.322C16.9773 17.0717 17.1653 16.8376 17.4405 16.4683C17.4405 18.1999 17.4405 19.7559 17.4405 21.314C17.4052 21.3241 17.3683 21.3362 17.3331 21.3463C17.2089 20.4118 17.0847 19.4774 16.9605 18.545C16.9035 18.541 16.8464 18.5369 16.7877 18.5329C16.3161 22.757 15.8463 26.9811 15.3546 31.3808Z" fill="#403637"/>
<path d="M24.2468 62.4816C22.4445 57.4966 20.763 52.441 18.7912 47.5529C17.8078 45.1129 17.7642 42.7617 18.0965 40.2531C18.1082 40.1603 18.1569 40.0735 18.2509 39.801C20.325 47.452 22.3572 54.9476 24.3877 62.4453C24.3407 62.4574 24.2937 62.4695 24.2468 62.4816Z" fill="#403637"/>
<path d="M5.67163 37.357C6.556 37.357 7.28262 37.3106 8.00085 37.3812C8.25928 37.4075 8.59491 37.6436 8.73083 37.906C10.7446 41.8152 12.7315 45.7447 14.626 49.767C11.6642 45.6639 8.70398 41.5589 5.67163 37.357Z" fill="#403637"/>
<path d="M66.6608 27.6952C67.9809 27.6952 68.9908 28.0224 69.6904 28.6769C70.39 29.3201 70.7398 30.1776 70.7398 31.2495C70.7398 32.2651 70.3956 33.117 69.7073 33.8053C69.0303 34.4823 67.8907 34.8208 66.2884 34.8208L65.5606 34.8039C65.0867 34.7813 64.6184 34.77 64.1558 34.77C63.2983 34.77 62.6325 34.787 62.1586 34.8208V34.4823C62.5648 34.4597 62.8582 34.4146 63.0387 34.3469C63.2306 34.2792 63.3603 34.1494 63.428 33.9576C63.4957 33.7658 63.5296 33.4555 63.5296 33.0267V24.6317C63.5296 24.2029 63.4957 23.8927 63.428 23.7008C63.3603 23.509 63.2306 23.3792 63.0387 23.3115C62.8582 23.2438 62.5648 23.1987 62.1586 23.1761V22.8376C63.2644 22.8715 64.9005 22.8884 67.067 22.8884C68.4887 22.8884 69.4986 22.8715 70.0966 22.8376C70.0176 23.5824 69.9781 24.2481 69.9781 24.8348C69.9781 25.2749 69.9951 25.6247 70.0289 25.8842H69.6396C69.5606 25.1508 69.4591 24.6092 69.335 24.2594C69.2109 23.8983 69.0021 23.6388 68.7087 23.4808C68.4154 23.3115 67.9697 23.2269 67.3716 23.2269H66.4746C66.0684 23.2269 65.7694 23.2608 65.5775 23.3285C65.397 23.3849 65.2729 23.509 65.2052 23.7008C65.1375 23.8927 65.1036 24.2029 65.1036 24.6317V27.7291L66.6608 27.6952ZM66.2376 34.4823C67.3096 34.4823 68.043 34.2002 68.4379 33.636C68.8441 33.0718 69.0472 32.282 69.0472 31.2665C69.0472 30.1268 68.8216 29.3031 68.3702 28.7954C67.9189 28.2763 67.1572 28.0168 66.0853 28.0168C65.6904 28.0168 65.3632 28.0224 65.1036 28.0337V33.0267C65.1036 33.4442 65.1318 33.7545 65.1883 33.9576C65.2447 34.1607 65.3462 34.3018 65.4929 34.3807C65.6509 34.4484 65.8991 34.4823 66.2376 34.4823ZM77.4203 25.8673C78.0183 25.8673 78.5543 26.0309 79.0282 26.3581C79.5134 26.6853 79.8914 27.1649 80.1622 27.7968C80.433 28.4287 80.5684 29.1847 80.5684 30.0648C80.5684 30.9336 80.4274 31.746 80.1453 32.502C79.8745 33.258 79.4457 33.873 78.8589 34.3469C78.2835 34.8208 77.5613 35.0578 76.6925 35.0578C76.2637 35.0578 75.8744 34.9731 75.5246 34.8039C75.1748 34.6346 74.904 34.4146 74.7122 34.1438V36.3102C74.7122 36.7729 74.8476 37.0888 75.1184 37.2581C75.3892 37.4386 75.7954 37.5289 76.3371 37.5289V37.8843L75.9478 37.8674C74.8984 37.8335 74.2157 37.8166 73.8998 37.8166C73.629 37.8166 73.0197 37.8392 72.0719 37.8843V37.5289C72.4894 37.5289 72.7771 37.4499 72.9351 37.2919C73.1043 37.1452 73.1889 36.8744 73.1889 36.4795V27.9491C73.1889 27.4301 73.093 27.0521 72.9012 26.8151C72.7094 26.5781 72.3765 26.4597 71.9026 26.4597V26.1042C72.2524 26.1381 72.6022 26.155 72.952 26.155C73.6628 26.155 74.2496 26.076 74.7122 25.9181V27.7121C74.9605 27.1254 75.3215 26.6741 75.7954 26.3581C76.2694 26.0309 76.811 25.8673 77.4203 25.8673ZM76.5063 34.6685C78.1199 34.6685 78.9266 33.2129 78.9266 30.3017C78.9266 27.6839 78.2722 26.375 76.9633 26.375C76.4555 26.375 75.9986 26.5612 75.5923 26.9336C75.1861 27.2947 74.8928 27.8193 74.7122 28.5076V33.5852C74.8702 33.9125 75.1015 34.1776 75.4062 34.3807C75.7108 34.5726 76.0775 34.6685 76.5063 34.6685ZM91.4693 26.4766C90.9954 26.4766 90.6625 26.5669 90.4707 26.7474C90.2788 26.9167 90.1829 27.2326 90.1829 27.6952V33.2467C90.1829 33.7094 90.2788 34.031 90.4707 34.2115C90.6625 34.3807 90.9954 34.4654 91.4693 34.4654V34.8208C90.4312 34.7757 89.7542 34.7531 89.4382 34.7531C89.1223 34.7531 88.4904 34.7757 87.5426 34.8208V34.4654C87.9601 34.4654 88.2478 34.3807 88.4058 34.2115C88.575 34.031 88.6597 33.7094 88.6597 33.2467V28.1014L84.6822 33.6022C84.716 33.9181 84.8176 34.1438 84.9868 34.2792C85.1561 34.4033 85.4213 34.4654 85.7823 34.4654V34.8208C84.8345 34.7757 84.2026 34.7531 83.8867 34.7531C83.5708 34.7531 82.8937 34.7757 81.8557 34.8208V34.4654C82.3296 34.4654 82.6624 34.3807 82.8543 34.2115C83.0461 34.031 83.142 33.7094 83.142 33.2467V27.6952C83.142 27.2326 83.0461 26.9167 82.8543 26.7474C82.6624 26.5669 82.3296 26.4766 81.8557 26.4766V26.1212C82.8937 26.1663 83.5708 26.1889 83.8867 26.1889C84.2026 26.1889 84.8345 26.1663 85.7823 26.1212V26.4766C85.3648 26.4766 85.0715 26.5669 84.9022 26.7474C84.7443 26.9167 84.6653 27.2326 84.6653 27.6952V33.0436L88.6597 27.5429C88.6484 27.1367 88.5581 26.8602 88.3888 26.7135C88.2196 26.5556 87.9375 26.4766 87.5426 26.4766V26.1212C88.4904 26.1663 89.1223 26.1889 89.4382 26.1889C89.7542 26.1889 90.4312 26.1663 91.4693 26.1212V26.4766ZM100.998 26.4766C100.524 26.4766 100.191 26.5669 99.9993 26.7474C99.8074 26.9167 99.7115 27.2326 99.7115 27.6952V33.2467C99.7115 33.7094 99.8074 34.031 99.9993 34.2115C100.191 34.3807 100.524 34.4654 100.998 34.4654V34.8208C99.9598 34.7757 99.2715 34.7531 98.933 34.7531C98.6734 34.7531 98.019 34.77 96.9696 34.8039L96.5634 34.8208V34.4654C97.105 34.4654 97.5112 34.3807 97.782 34.2115C98.0528 34.031 98.1882 33.7094 98.1882 33.2467V27.6952C98.1882 27.2326 98.1036 26.9167 97.9344 26.7474C97.7764 26.5669 97.4887 26.4766 97.0712 26.4766H96.9188C96.648 26.4766 96.4619 26.5612 96.3603 26.7305C96.27 26.8884 96.2023 27.21 96.1572 27.6952C96.0331 29.038 95.9033 30.1381 95.7679 30.9957C95.6438 31.8419 95.4463 32.6036 95.1755 33.2806C94.6903 34.4654 94.0528 35.0578 93.263 35.0578C92.9357 35.0578 92.6536 34.9675 92.4167 34.787C92.191 34.6064 92.0782 34.3582 92.0782 34.0422C92.0782 33.7714 92.1628 33.557 92.3321 33.3991C92.5013 33.2298 92.7213 33.1452 92.9922 33.1452C93.2404 33.1452 93.4435 33.2185 93.6015 33.3652C93.7594 33.5006 93.8384 33.6981 93.8384 33.9576C93.8384 34.3525 93.624 34.629 93.1953 34.787C93.2178 34.7982 93.2742 34.8039 93.3645 34.8039C93.7256 34.8039 94.0302 34.6403 94.2785 34.313C94.538 33.9858 94.7468 33.6135 94.9047 33.196C95.3561 32.0338 95.672 30.2002 95.8525 27.6952C95.8864 27.2439 95.7905 26.9279 95.5648 26.7474C95.3504 26.5669 95.0006 26.4766 94.5154 26.4766V26.1212C95.0119 26.1663 95.3956 26.1889 95.6664 26.1889H97.105H98.9499C99.2771 26.1889 99.9598 26.1663 100.998 26.1212V26.4766ZM110.535 26.4766C110.061 26.4766 109.728 26.5669 109.536 26.7474C109.344 26.9167 109.249 27.2326 109.249 27.6952V33.2467C109.249 33.7094 109.344 34.031 109.536 34.2115C109.728 34.3807 110.061 34.4654 110.535 34.4654V34.8208C109.497 34.7757 108.809 34.7531 108.47 34.7531C108.21 34.7531 107.556 34.77 106.507 34.8039L106.1 34.8208V34.4654C106.642 34.4654 107.048 34.3807 107.319 34.2115C107.59 34.031 107.725 33.7094 107.725 33.2467V27.6952C107.725 27.2326 107.641 26.9167 107.471 26.7474C107.313 26.5669 107.026 26.4766 106.608 26.4766H106.456C106.185 26.4766 105.999 26.5612 105.897 26.7305C105.807 26.8884 105.739 27.21 105.694 27.6952C105.57 29.038 105.44 30.1381 105.305 30.9957C105.181 31.8419 104.983 32.6036 104.713 33.2806C104.227 34.4654 103.59 35.0578 102.8 35.0578C102.473 35.0578 102.191 34.9675 101.954 34.787C101.728 34.6064 101.615 34.3582 101.615 34.0422C101.615 33.7714 101.7 33.557 101.869 33.3991C102.038 33.2298 102.258 33.1452 102.529 33.1452C102.777 33.1452 102.981 33.2185 103.139 33.3652C103.296 33.5006 103.375 33.6981 103.375 33.9576C103.375 34.3525 103.161 34.629 102.732 34.787C102.755 34.7982 102.811 34.8039 102.902 34.8039C103.263 34.8039 103.567 34.6403 103.816 34.313C104.075 33.9858 104.284 33.6135 104.442 33.196C104.893 32.0338 105.209 30.2002 105.39 27.6952C105.423 27.2439 105.328 26.9279 105.102 26.7474C104.887 26.5669 104.538 26.4766 104.052 26.4766V26.1212C104.549 26.1663 104.933 26.1889 105.203 26.1889H106.642H108.487C108.814 26.1889 109.497 26.1663 110.535 26.1212V26.4766ZM121.138 26.4766C120.664 26.4766 120.331 26.5669 120.14 26.7474C119.948 26.9167 119.852 27.2326 119.852 27.6952V33.2467C119.852 33.7094 119.948 34.031 120.14 34.2115C120.331 34.3807 120.664 34.4654 121.138 34.4654V34.8208C120.1 34.7757 119.423 34.7531 119.107 34.7531C118.791 34.7531 118.159 34.7757 117.212 34.8208V34.4654C117.629 34.4654 117.917 34.3807 118.075 34.2115C118.244 34.031 118.329 33.7094 118.329 33.2467V28.1014L114.351 33.6022C114.385 33.9181 114.487 34.1438 114.656 34.2792C114.825 34.4033 115.09 34.4654 115.451 34.4654V34.8208C114.504 34.7757 113.872 34.7531 113.556 34.7531C113.24 34.7531 112.563 34.7757 111.525 34.8208V34.4654C111.999 34.4654 112.331 34.3807 112.523 34.2115C112.715 34.031 112.811 33.7094 112.811 33.2467V27.6952C112.811 27.2326 112.715 26.9167 112.523 26.7474C112.331 26.5669 111.999 26.4766 111.525 26.4766V26.1212C112.563 26.1663 113.24 26.1889 113.556 26.1889C113.872 26.1889 114.504 26.1663 115.451 26.1212V26.4766C115.034 26.4766 114.74 26.5669 114.571 26.7474C114.413 26.9167 114.334 27.2326 114.334 27.6952V33.0436L118.329 27.5429C118.317 27.1367 118.227 26.8602 118.058 26.7135C117.889 26.5556 117.606 26.4766 117.212 26.4766V26.1212C118.159 26.1663 118.791 26.1889 119.107 26.1889C119.423 26.1889 120.1 26.1663 121.138 26.1212V26.4766ZM124.388 34.9393C123.677 34.9393 123.146 34.7644 122.797 34.4146C122.458 34.0535 122.289 33.557 122.289 32.9252C122.289 32.4174 122.424 31.9999 122.695 31.6727C122.977 31.3455 123.304 31.0859 123.677 30.8941C124.06 30.7023 124.562 30.4992 125.183 30.2848C125.815 30.0704 126.283 29.873 126.588 29.6924C126.892 29.5119 127.045 29.2693 127.045 28.9646V27.9152C127.045 27.2608 126.904 26.8151 126.622 26.5781C126.351 26.3299 125.967 26.2058 125.471 26.2058C124.681 26.2058 124.122 26.4089 123.795 26.8151C124.021 26.8715 124.207 26.99 124.354 27.1705C124.512 27.3511 124.591 27.5767 124.591 27.8475C124.591 28.1296 124.5 28.3553 124.32 28.5246C124.139 28.6825 123.908 28.7615 123.626 28.7615C123.31 28.7615 123.073 28.6656 122.915 28.4738C122.757 28.2707 122.678 28.0281 122.678 27.746C122.678 27.4752 122.74 27.2495 122.864 27.069C123 26.8884 123.197 26.7079 123.457 26.5274C123.727 26.3355 124.072 26.1776 124.489 26.0535C124.907 25.9293 125.364 25.8673 125.86 25.8673C126.74 25.8673 127.406 26.076 127.857 26.4935C128.139 26.753 128.325 27.069 128.416 27.4413C128.517 27.8024 128.568 28.282 128.568 28.88V33.5852C128.568 33.8673 128.608 34.0704 128.687 34.1946C128.766 34.3187 128.901 34.3807 129.093 34.3807C129.228 34.3807 129.352 34.3525 129.465 34.2961C129.589 34.2284 129.719 34.1381 129.854 34.0253L130.041 34.313C129.747 34.5387 129.493 34.7023 129.279 34.8039C129.076 34.8941 128.816 34.9393 128.5 34.9393C127.959 34.9393 127.581 34.8039 127.366 34.5331C127.152 34.2623 127.045 33.8955 127.045 33.4329C126.706 33.9971 126.317 34.392 125.877 34.6177C125.437 34.8321 124.94 34.9393 124.388 34.9393ZM125.132 34.2623C125.877 34.2623 126.514 33.8335 127.045 32.9759V29.6586C126.943 29.8165 126.802 29.9463 126.622 30.0478C126.441 30.1494 126.165 30.2848 125.792 30.4541C125.364 30.6346 125.014 30.8095 124.743 30.9787C124.483 31.1367 124.258 31.3567 124.066 31.6388C123.874 31.9209 123.778 32.282 123.778 32.7221C123.778 33.2298 123.902 33.6135 124.151 33.873C124.399 34.1325 124.726 34.2623 125.132 34.2623ZM139.909 26.4766C139.435 26.4766 139.102 26.5669 138.91 26.7474C138.718 26.9167 138.623 27.2326 138.623 27.6952V33.2467C138.623 33.7094 138.718 34.031 138.91 34.2115C139.102 34.3807 139.435 34.4654 139.909 34.4654V34.8208C138.871 34.7757 138.194 34.7531 137.878 34.7531C137.562 34.7531 136.93 34.7757 135.982 34.8208V34.4654C136.4 34.4654 136.687 34.3807 136.845 34.2115C137.015 34.031 137.099 33.7094 137.099 33.2467V30.5048H133.359V33.2467C133.359 33.7094 133.438 34.031 133.596 34.2115C133.765 34.3807 134.058 34.4654 134.476 34.4654V34.8208C133.528 34.7757 132.896 34.7531 132.58 34.7531C132.264 34.7531 131.587 34.7757 130.549 34.8208V34.4654C131.023 34.4654 131.356 34.3807 131.548 34.2115C131.74 34.031 131.835 33.7094 131.835 33.2467V27.6952C131.835 27.2326 131.74 26.9167 131.548 26.7474C131.356 26.5669 131.023 26.4766 130.549 26.4766V26.1212C131.587 26.1663 132.264 26.1889 132.58 26.1889C132.896 26.1889 133.528 26.1663 134.476 26.1212V26.4766C134.058 26.4766 133.765 26.5669 133.596 26.7474C133.438 26.9167 133.359 27.2326 133.359 27.6952V30.1663H137.099V27.6952C137.099 27.2326 137.015 26.9167 136.845 26.7474C136.687 26.5669 136.4 26.4766 135.982 26.4766V26.1212C136.93 26.1663 137.562 26.1889 137.878 26.1889C138.194 26.1889 138.871 26.1663 139.909 26.1212V26.4766ZM149.24 26.1212C149.161 26.8659 149.122 27.5203 149.122 28.0845C149.122 28.5246 149.139 28.8744 149.173 29.1339H148.783C148.727 28.3779 148.608 27.8081 148.428 27.4244C148.259 27.0408 148.022 26.7869 147.717 26.6628C147.424 26.5274 147.023 26.4597 146.515 26.4597H145.855V33.0775C145.855 33.5965 146.002 33.9576 146.295 34.1607C146.6 34.3638 147.051 34.4654 147.649 34.4654V34.8208L147.226 34.8039C146.109 34.77 145.398 34.7531 145.094 34.7531C144.789 34.7531 144.078 34.77 142.961 34.8039L142.538 34.8208V34.4654C143.136 34.4654 143.582 34.3638 143.875 34.1607C144.18 33.9576 144.332 33.5965 144.332 33.0775V26.4597H143.503C143.006 26.4597 142.623 26.5274 142.352 26.6628C142.081 26.7869 141.867 27.0408 141.709 27.4244C141.562 27.8081 141.46 28.3835 141.404 29.1508H141.015C141.048 28.8913 141.065 28.5415 141.065 28.1014C141.065 27.5372 141.026 26.8828 140.947 26.1381H142.572C143.091 26.1381 143.486 26.1437 143.757 26.155L145.077 26.1719C145.381 26.1719 145.827 26.1607 146.414 26.1381L147.615 26.1212H149.24ZM154.211 29.7432C155.385 29.7432 156.243 29.9632 156.784 30.4033C157.337 30.8321 157.613 31.4188 157.613 32.1635C157.613 32.6149 157.489 33.0436 157.241 33.4498C156.993 33.8448 156.592 34.172 156.039 34.4315C155.498 34.691 154.804 34.8208 153.958 34.8208C153.833 34.8208 153.58 34.8095 153.196 34.787C152.79 34.7644 152.468 34.7531 152.231 34.7531C151.938 34.7531 151.272 34.7757 150.234 34.8208V34.4654C150.708 34.4654 151.041 34.3807 151.233 34.2115C151.424 34.031 151.52 33.7094 151.52 33.2467V27.6952C151.52 27.2326 151.436 26.9167 151.266 26.7474C151.109 26.5669 150.821 26.4766 150.403 26.4766V26.1212C151.351 26.1663 151.983 26.1889 152.299 26.1889C152.615 26.1889 153.292 26.1663 154.33 26.1212V26.4766C153.856 26.4766 153.523 26.5669 153.331 26.7474C153.14 26.9167 153.044 27.2326 153.044 27.6952V29.7432H154.211ZM160.863 33.2467C160.863 33.7094 160.959 34.031 161.151 34.2115C161.343 34.3807 161.676 34.4654 162.149 34.4654V34.8208C161.111 34.7757 160.423 34.7531 160.085 34.7531C159.791 34.7531 159.171 34.7757 158.223 34.8208V34.4654C158.64 34.4654 158.928 34.3807 159.086 34.2115C159.255 34.031 159.34 33.7094 159.34 33.2467V27.6952C159.34 27.2326 159.255 26.9167 159.086 26.7474C158.928 26.5669 158.64 26.4766 158.223 26.4766V26.1212C159.171 26.1663 159.791 26.1889 160.085 26.1889C160.401 26.1889 161.032 26.1663 161.98 26.1212V26.4766C161.563 26.4766 161.269 26.5669 161.1 26.7474C160.942 26.9167 160.863 27.2326 160.863 27.6952V33.2467ZM153.771 34.4654C154.606 34.4654 155.188 34.2679 155.515 33.873C155.853 33.4668 156.023 32.9308 156.023 32.2651C156.023 31.4865 155.802 30.9223 155.362 30.5725C154.922 30.2115 154.206 30.0309 153.213 30.0309H153.044V33.2467C153.044 33.6981 153.094 34.014 153.196 34.1946C153.309 34.3751 153.501 34.4654 153.771 34.4654ZM72.6185 56.9745C72.3703 57.3469 72.1164 57.6233 71.8569 57.8039C71.5973 57.9731 71.2475 58.0578 70.8075 58.0578C70.3561 58.0578 69.9781 57.928 69.6735 57.6685C69.3801 57.409 69.1544 56.9294 68.9965 56.2298L68.5226 54.1311C68.3872 53.5556 68.2518 53.1155 68.1164 52.8109C67.9922 52.495 67.7778 52.2467 67.4732 52.0662C67.1798 51.8744 66.7623 51.7784 66.2207 51.7784H65.1036V56.0267C65.1036 56.4555 65.1375 56.7658 65.2052 56.9576C65.2729 57.1494 65.397 57.2792 65.5775 57.3469C65.7694 57.4146 66.0684 57.4597 66.4746 57.4823V57.8208C65.9555 57.787 65.239 57.77 64.3251 57.77C63.3547 57.77 62.6325 57.787 62.1586 57.8208V57.4823C62.5648 57.4597 62.8582 57.4146 63.0387 57.3469C63.2306 57.2792 63.3603 57.1494 63.428 56.9576C63.4957 56.7658 63.5296 56.4555 63.5296 56.0267V47.6317C63.5296 47.2029 63.4957 46.8927 63.428 46.7008C63.3603 46.509 63.2306 46.3792 63.0387 46.3115C62.8582 46.2438 62.5648 46.1987 62.1586 46.1761V45.8376C62.6325 45.8715 63.3547 45.8884 64.3251 45.8884C65.2278 45.8884 65.9443 45.8715 66.4746 45.8376V46.1761C66.0684 46.1987 65.7694 46.2438 65.5775 46.3115C65.397 46.3792 65.2729 46.509 65.2052 46.7008C65.1375 46.8927 65.1036 47.2029 65.1036 47.6317V51.4569C65.9386 51.4456 66.6044 51.1184 67.1008 50.4752L68.7257 48.4103C69.3011 47.6994 69.5889 47.1578 69.5889 46.7855C69.5889 46.3905 69.2391 46.1874 68.5395 46.1761V45.8376C69.1826 45.8715 69.8315 45.8884 70.4859 45.8884C71.1065 45.8884 71.5861 45.8715 71.9246 45.8376V46.1761C71.1573 46.289 70.4915 46.7008 69.9274 47.4117L66.7454 51.4738C67.6481 51.5076 68.3815 51.7051 68.9457 52.0662C69.5212 52.416 69.9104 53.0309 70.1135 53.911L70.6044 56.0436C70.7285 56.5852 70.8413 56.952 70.9429 57.1438C71.0557 57.3356 71.2193 57.4315 71.4337 57.4315C71.6255 57.4315 71.7835 57.3807 71.9076 57.2792C72.043 57.1776 72.1954 57.014 72.3646 56.7884L72.6185 56.9745ZM77.3248 48.8673C78.4757 48.8673 79.401 49.2509 80.1006 50.0182C80.8114 50.7742 81.1669 51.9251 81.1669 53.471C81.1669 55.0168 80.8114 56.1678 80.1006 56.9238C79.401 57.6798 78.4757 58.0578 77.3248 58.0578C76.1739 58.0578 75.243 57.6798 74.5321 56.9238C73.8325 56.1678 73.4828 55.0168 73.4828 53.471C73.4828 51.9251 73.8325 50.7742 74.5321 50.0182C75.243 49.2509 76.1739 48.8673 77.3248 48.8673ZM77.3248 49.2058C76.6478 49.2058 76.1118 49.5556 75.7169 50.2552C75.322 50.9435 75.1245 52.0154 75.1245 53.471C75.1245 54.9266 75.322 55.9985 75.7169 56.6868C76.1118 57.3751 76.6478 57.7192 77.3248 57.7192C78.0018 57.7192 78.5378 57.3751 78.9327 56.6868C79.3276 55.9985 79.5251 54.9266 79.5251 53.471C79.5251 52.0154 79.3276 50.9435 78.9327 50.2552C78.5378 49.5556 78.0018 49.2058 77.3248 49.2058ZM86.682 48.8673C87.438 48.8673 88.0925 49.0478 88.6454 49.4089C89.1757 49.7587 89.4409 50.1931 89.4409 50.7121C89.4409 51.0055 89.3562 51.2368 89.187 51.4061C89.0177 51.5753 88.8033 51.66 88.5438 51.66C88.2843 51.66 88.0643 51.5866 87.8837 51.4399C87.7032 51.282 87.6129 51.0732 87.6129 50.8137C87.6129 50.5767 87.6806 50.3793 87.816 50.2213C87.9514 50.0521 88.1207 49.9392 88.3238 49.8828C88.211 49.6797 88.0079 49.5104 87.7145 49.375C87.4324 49.2396 87.1277 49.1719 86.8005 49.1719C86.383 49.1719 85.9937 49.3073 85.6327 49.5781C85.2716 49.8377 84.9726 50.2777 84.7356 50.8983C84.4987 51.5076 84.3802 52.3144 84.3802 53.3187C84.3802 54.7178 84.6059 55.739 85.0572 56.3821C85.5085 57.014 86.0953 57.33 86.8174 57.33C87.3026 57.33 87.7596 57.1889 88.1884 56.9068C88.6284 56.6247 88.9895 56.1847 89.2716 55.5867L89.5932 55.7051C89.4014 56.3483 89.0403 56.9012 88.51 57.3638C87.9909 57.8264 87.3139 58.0578 86.4789 58.0578C85.7793 58.0578 85.1418 57.8772 84.5664 57.5161C84.0022 57.1551 83.5565 56.636 83.2293 55.959C82.902 55.2707 82.7384 54.4752 82.7384 53.5725C82.7384 52.6586 82.902 51.8461 83.2293 51.1353C83.5678 50.4244 84.036 49.8715 84.6341 49.4766C85.2321 49.0704 85.9147 48.8673 86.682 48.8673ZM99.0262 49.1212C98.9472 49.8659 98.9077 50.5203 98.9077 51.0845C98.9077 51.5246 98.9246 51.8744 98.9585 52.1339H98.5692C98.5128 51.3779 98.3943 50.8081 98.2138 50.4244C98.0445 50.0408 97.8076 49.7869 97.5029 49.6628C97.2095 49.5274 96.809 49.4597 96.3012 49.4597H95.6411V56.0775C95.6411 56.5965 95.7878 56.9576 96.0812 57.1607C96.3858 57.3638 96.8372 57.4654 97.4352 57.4654V57.8208L97.0121 57.8039C95.895 57.77 95.1841 57.7531 94.8795 57.7531C94.5748 57.7531 93.8639 57.77 92.7469 57.8039L92.3237 57.8208V57.4654C92.9218 57.4654 93.3675 57.3638 93.6608 57.1607C93.9655 56.9576 94.1178 56.5965 94.1178 56.0775V49.4597H93.2885C92.792 49.4597 92.4084 49.5274 92.1376 49.6628C91.8667 49.7869 91.6524 50.0408 91.4944 50.4244C91.3477 50.8081 91.2462 51.3835 91.1897 52.1508H90.8005C90.8343 51.8913 90.8512 51.5415 90.8512 51.1014C90.8512 50.5372 90.8117 49.8828 90.7327 49.1381H92.3576C92.8766 49.1381 93.2716 49.1437 93.5424 49.155L94.8625 49.1719C95.1672 49.1719 95.6129 49.1607 96.1996 49.1381L97.4013 49.1212H99.0262ZM105.453 48.8673C106.051 48.8673 106.587 49.0309 107.061 49.3581C107.546 49.6853 107.924 50.1649 108.195 50.7968C108.466 51.4287 108.601 52.1847 108.601 53.0648C108.601 53.9336 108.46 54.746 108.178 55.502C107.907 56.258 107.478 56.873 106.892 57.3469C106.316 57.8208 105.594 58.0578 104.725 58.0578C104.296 58.0578 103.907 57.9731 103.557 57.8039C103.207 57.6346 102.937 57.4146 102.745 57.1438V59.3102C102.745 59.7729 102.88 60.0888 103.151 60.2581C103.422 60.4386 103.828 60.5289 104.37 60.5289V60.8843L103.98 60.8674C102.931 60.8335 102.248 60.8166 101.932 60.8166C101.662 60.8166 101.052 60.8392 100.105 60.8843V60.5289C100.522 60.5289 100.81 60.4499 100.968 60.2919C101.137 60.1452 101.222 59.8744 101.222 59.4795V50.9491C101.222 50.4301 101.126 50.0521 100.934 49.8151C100.742 49.5781 100.409 49.4597 99.9353 49.4597V49.1042C100.285 49.1381 100.635 49.155 100.985 49.155C101.695 49.155 102.282 49.076 102.745 48.9181V50.7121C102.993 50.1254 103.354 49.6741 103.828 49.3581C104.302 49.0309 104.844 48.8673 105.453 48.8673ZM104.539 57.6685C106.153 57.6685 106.959 56.2129 106.959 53.3017C106.959 50.6839 106.305 49.375 104.996 49.375C104.488 49.375 104.031 49.5612 103.625 49.9336C103.219 50.2947 102.925 50.8193 102.745 51.5076V56.5852C102.903 56.9125 103.134 57.1776 103.439 57.3807C103.743 57.5726 104.11 57.6685 104.539 57.6685ZM114.035 48.8673C115.186 48.8673 116.111 49.2509 116.811 50.0182C117.522 50.7742 117.877 51.9251 117.877 53.471C117.877 55.0168 117.522 56.1678 116.811 56.9238C116.111 57.6798 115.186 58.0578 114.035 58.0578C112.884 58.0578 111.953 57.6798 111.242 56.9238C110.543 56.1678 110.193 55.0168 110.193 53.471C110.193 51.9251 110.543 50.7742 111.242 50.0182C111.953 49.2509 112.884 48.8673 114.035 48.8673ZM114.035 49.2058C113.358 49.2058 112.822 49.5556 112.427 50.2552C112.032 50.9435 111.835 52.0154 111.835 53.471C111.835 54.9266 112.032 55.9985 112.427 56.6868C112.822 57.3751 113.358 57.7192 114.035 57.7192C114.712 57.7192 115.248 57.3751 115.643 56.6868C116.038 55.9985 116.235 54.9266 116.235 53.471C116.235 52.0154 116.038 50.9435 115.643 50.2552C115.248 49.5556 114.712 49.2058 114.035 49.2058ZM130.213 49.4427C129.807 49.4653 129.508 49.5104 129.316 49.5781C129.136 49.6458 129.011 49.7756 128.944 49.9674C128.876 50.1592 128.842 50.4695 128.842 50.8983V56.0267C128.842 56.4555 128.876 56.7658 128.944 56.9576C129.011 57.1494 129.136 57.2792 129.316 57.3469C129.508 57.4146 129.807 57.4597 130.213 57.4823V57.8208C129.694 57.787 128.995 57.77 128.114 57.77C127.144 57.77 126.422 57.787 125.948 57.8208V57.4823C126.354 57.4597 126.648 57.4146 126.828 57.3469C127.02 57.2792 127.15 57.1494 127.217 56.9576C127.285 56.7658 127.319 56.4555 127.319 56.0267V50.0859L124.171 57.9054H123.9L120.887 50.1875V56.0267C120.887 56.4555 120.921 56.7658 120.989 56.9576C121.057 57.1494 121.181 57.2792 121.361 57.3469C121.553 57.4146 121.852 57.4597 122.258 57.4823V57.8208C121.852 57.787 121.339 57.77 120.718 57.77C120.041 57.77 119.516 57.787 119.144 57.8208V57.4823C119.55 57.4597 119.844 57.4146 120.024 57.3469C120.216 57.2792 120.346 57.1494 120.413 56.9576C120.481 56.7658 120.515 56.4555 120.515 56.0267V50.8983C120.515 50.4695 120.481 50.1592 120.413 49.9674C120.346 49.7756 120.216 49.6458 120.024 49.5781C119.844 49.5104 119.55 49.4653 119.144 49.4427V49.1042C119.516 49.1381 120.041 49.155 120.718 49.155C121.215 49.155 121.649 49.1381 122.021 49.1042L124.611 55.959L127.319 49.155H128.114C128.972 49.155 129.672 49.1381 130.213 49.1042V49.4427ZM135.121 52.7432C136.294 52.7432 137.152 52.9632 137.694 53.4033C138.246 53.8321 138.523 54.4188 138.523 55.1635C138.523 55.6149 138.399 56.0436 138.151 56.4498C137.902 56.8448 137.502 57.172 136.949 57.4315C136.407 57.691 135.713 57.8208 134.867 57.8208C134.743 57.8208 134.489 57.8095 134.105 57.787C133.699 57.7644 133.378 57.7531 133.141 57.7531C132.847 57.7531 132.181 57.7757 131.143 57.8208V57.4654C131.617 57.4654 131.95 57.3807 132.142 57.2115C132.334 57.031 132.43 56.7094 132.43 56.2467V50.6952C132.43 50.2326 132.345 49.9167 132.176 49.7474C132.018 49.5669 131.73 49.4766 131.313 49.4766V49.1212C132.26 49.1663 132.892 49.1889 133.208 49.1889C133.524 49.1889 134.201 49.1663 135.239 49.1212V49.4766C134.765 49.4766 134.433 49.5669 134.241 49.7474C134.049 49.9167 133.953 50.2326 133.953 50.6952V52.7432H135.121ZM141.773 56.2467C141.773 56.7094 141.868 57.031 142.06 57.2115C142.252 57.3807 142.585 57.4654 143.059 57.4654V57.8208C142.021 57.7757 141.332 57.7531 140.994 57.7531C140.701 57.7531 140.08 57.7757 139.132 57.8208V57.4654C139.55 57.4654 139.837 57.3807 139.995 57.2115C140.165 57.031 140.249 56.7094 140.249 56.2467V50.6952C140.249 50.2326 140.165 49.9167 139.995 49.7474C139.837 49.5669 139.55 49.4766 139.132 49.4766V49.1212C140.08 49.1663 140.701 49.1889 140.994 49.1889C141.31 49.1889 141.942 49.1663 142.89 49.1212V49.4766C142.472 49.4766 142.179 49.5669 142.009 49.7474C141.852 49.9167 141.773 50.2326 141.773 50.6952V56.2467ZM134.681 57.4654C135.516 57.4654 136.097 57.2679 136.424 56.873C136.763 56.4668 136.932 55.9308 136.932 55.2651C136.932 54.4865 136.712 53.9223 136.272 53.5725C135.832 53.2115 135.115 53.0309 134.122 53.0309H133.953V56.2467C133.953 56.6981 134.004 57.014 134.105 57.1946C134.218 57.3751 134.41 57.4654 134.681 57.4654Z" fill="#403637"/>
</svg>
